<?xml version="1.0" encoding="UTF-8" standalone="no"?>
<!DOCTYPE svg PUBLIC "-//W3C//DTD SVG 1.1//EN"
 "http://www.w3.org/Graphics/SVG/1.1/DTD/svg11.dtd">
<!-- Generated by graphviz version 15.0.0 (20260523.1842)
 -->
<!-- Title: InspectIQ Serverless AWS Architecture Pages: 1 -->
<svg width="2614pt" height="1500pt"
 viewBox="0.00 0.00 2614.00 1500.00" xmlns="http://www.w3.org/2000/svg" xmlns:xlink="http://www.w3.org/1999/xlink">
<g id="graph0" class="graph" transform="scale(0.979496 0.979496) rotate(0) translate(25.2 1506.2)">
<title>InspectIQ Serverless AWS Architecture</title>
<polygon fill="white" stroke="none" points="-25.2,25.2 -25.2,-1506.2 2643.5,-1506.2 2643.5,25.2 -25.2,25.2"/>
<text xml:space="preserve" text-anchor="middle" x="1309.15" y="-7.75" font-family="Arial" font-size="15.00" fill="#2d3436">InspectIQ Serverless AWS Architecture</text>
<g id="clust1" class="cluster">
<title>cluster_Delivery</title>
<path fill="#e5f5fd" stroke="#aeb6be" d="M20,-42C20,-42 535.15,-42 535.15,-42 541.15,-42 547.15,-48 547.15,-54 547.15,-54 547.15,-233 547.15,-233 547.15,-239 541.15,-245 535.15,-245 535.15,-245 20,-245 20,-245 14,-245 8,-239 8,-233 8,-233 8,-54 8,-54 8,-48 14,-42 20,-42"/>
<text xml:space="preserve" text-anchor="middle" x="38.12" y="-229.6" font-family="Sans-Serif" font-size="12.00" fill="#2d3436">Delivery</text>
</g>
<g id="clust2" class="cluster">
<title>cluster_Client applications</title>
<path fill="#e5f5fd" stroke="#aeb6be" d="M442.35,-253C442.35,-253 535.15,-253 535.15,-253 541.15,-253 547.15,-259 547.15,-265 547.15,-265 547.15,-642 547.15,-642 547.15,-648 541.15,-654 535.15,-654 535.15,-654 442.35,-654 442.35,-654 436.35,-654 430.35,-648 430.35,-642 430.35,-642 430.35,-265 430.35,-265 430.35,-259 436.35,-253 442.35,-253"/>
<text xml:space="preserve" text-anchor="middle" x="487.85" y="-638.6" font-family="Sans-Serif" font-size="12.00" fill="#2d3436">Client applications</text>
</g>
<g id="clust3" class="cluster">
<title>cluster_AWS us&#45;east&#45;1</title>
<path fill="#e5f5fd" stroke="#aeb6be" d="M693.4,-245C693.4,-245 2598.3,-245 2598.3,-245 2604.3,-245 2610.3,-251 2610.3,-257 2610.3,-257 2610.3,-1461 2610.3,-1461 2610.3,-1467 2604.3,-1473 2598.3,-1473 2598.3,-1473 693.4,-1473 693.4,-1473 687.4,-1473 681.4,-1467 681.4,-1461 681.4,-1461 681.4,-257 681.4,-257 681.4,-251 687.4,-245 693.4,-245"/>
<text xml:space="preserve" text-anchor="middle" x="729.15" y="-1457.6" font-family="Sans-Serif" font-size="12.00" fill="#2d3436">AWS us&#45;east&#45;1</text>
</g>
<g id="clust4" class="cluster">
<title>cluster_Identity and API</title>
<path fill="#ebf3e7" stroke="#aeb6be" d="M701.4,-253C701.4,-253 1032.25,-253 1032.25,-253 1038.25,-253 1044.25,-259 1044.25,-265 1044.25,-265 1044.25,-840 1044.25,-840 1044.25,-846 1038.25,-852 1032.25,-852 1032.25,-852 701.4,-852 701.4,-852 695.4,-852 689.4,-846 689.4,-840 689.4,-840 689.4,-265 689.4,-265 689.4,-259 695.4,-253 701.4,-253"/>
<text xml:space="preserve" text-anchor="middle" x="739.03" y="-836.6" font-family="Sans-Serif" font-size="12.00" fill="#2d3436">Identity and API</text>
</g>
<g id="clust5" class="cluster">
<title>cluster_Evidence and image analysis</title>
<path fill="#ebf3e7" stroke="#aeb6be" d="M1209.75,-253C1209.75,-253 1824.4,-253 1824.4,-253 1830.4,-253 1836.4,-259 1836.4,-265 1836.4,-265 1836.4,-810 1836.4,-810 1836.4,-816 1830.4,-822 1824.4,-822 1824.4,-822 1209.75,-822 1209.75,-822 1203.75,-822 1197.75,-816 1197.75,-810 1197.75,-810 1197.75,-265 1197.75,-265 1197.75,-259 1203.75,-253 1209.75,-253"/>
<text xml:space="preserve" text-anchor="middle" x="1284.13" y="-806.6" font-family="Sans-Serif" font-size="12.00" fill="#2d3436">Evidence and image analysis</text>
</g>
<g id="clust6" class="cluster">
<title>cluster_Domain events and operations</title>
<path fill="#ebf3e7" stroke="#aeb6be" d="M1731.6,-830C1731.6,-830 2383.75,-830 2383.75,-830 2389.75,-830 2395.75,-836 2395.75,-842 2395.75,-842 2395.75,-1221 2395.75,-1221 2395.75,-1227 2389.75,-1233 2383.75,-1233 2383.75,-1233 1731.6,-1233 1731.6,-1233 1725.6,-1233 1719.6,-1227 1719.6,-1221 1719.6,-1221 1719.6,-842 1719.6,-842 1719.6,-836 1725.6,-830 1731.6,-830"/>
<text xml:space="preserve" text-anchor="middle" x="1808.98" y="-1217.6" font-family="Sans-Serif" font-size="12.00" fill="#2d3436">Domain events and operations</text>
</g>
<g id="clust7" class="cluster">
<title>cluster_Observability</title>
<path fill="#ebf3e7" stroke="#aeb6be" d="M2290.95,-1241C2290.95,-1241 2590.3,-1241 2590.3,-1241 2596.3,-1241 2602.3,-1247 2602.3,-1253 2602.3,-1253 2602.3,-1432 2602.3,-1432 2602.3,-1438 2596.3,-1444 2590.3,-1444 2590.3,-1444 2290.95,-1444 2290.95,-1444 2284.95,-1444 2278.95,-1438 2278.95,-1432 2278.95,-1432 2278.95,-1253 2278.95,-1253 2278.95,-1247 2284.95,-1241 2290.95,-1241"/>
<text xml:space="preserve" text-anchor="middle" x="2321.83" y="-1428.6" font-family="Sans-Serif" font-size="12.00" fill="#2d3436">Observability</text>
</g>
<g id="clust8" class="cluster">
<title>cluster_External managed data</title>
<path fill="#e5f5fd" stroke="#aeb6be" d="M1198.78,-34C1198.78,-34 1314.53,-34 1314.53,-34 1320.53,-34 1326.53,-40 1326.53,-46 1326.53,-46 1326.53,-225 1326.53,-225 1326.53,-231 1320.53,-237 1314.53,-237 1314.53,-237 1198.78,-237 1198.78,-237 1192.78,-237 1186.78,-231 1186.78,-225 1186.78,-225 1186.78,-46 1186.78,-46 1186.78,-40 1192.78,-34 1198.78,-34"/>
<text xml:space="preserve" text-anchor="middle" x="1256.65" y="-221.6" font-family="Sans-Serif" font-size="12.00" fill="#2d3436">External managed data</text>
</g>
<!-- 70bba81592134ad991ff78248d66889a -->
<g id="node1" class="node">
<title>70bba81592134ad991ff78248d66889a</title>
<image xlink:href="/Users/aiden/Documents/Codex/2026-07-01/files-mentioned-by-the-user-you/outputs/inspectiq/.venv-diagrams/lib/python3.14/site-packages/resources/onprem/client/users.png" width="100.8px" height="100.8px" preserveAspectRatio="xMinYMin meet" x="183.8" y="-496.4"/>
<text xml:space="preserve" text-anchor="middle" x="234.2" y="-375.3" font-family="Arial" font-size="10.00" fill="#2d3436">Inspectors</text>
<text xml:space="preserve" text-anchor="middle" x="234.2" y="-363.3" font-family="Arial" font-size="10.00" fill="#2d3436">Reviewers</text>
<text xml:space="preserve" text-anchor="middle" x="234.2" y="-351.3" font-family="Arial" font-size="10.00" fill="#2d3436">Admins</text>
</g>
<!-- 832b05082b174aa5bd7e22d7f468e066 -->
<g id="node5" class="node">
<title>832b05082b174aa5bd7e22d7f468e066</title>
<image xlink:href="/Users/aiden/Documents/Codex/2026-07-01/files-mentioned-by-the-user-you/outputs/inspectiq/.venv-diagrams/lib/python3.14/site-packages/resources/saas/cdn/cloudflare.png" width="100.8px" height="45.4426px" preserveAspectRatio="xMinYMin meet" x="438.35" y="-366.721"/>
<text xml:space="preserve" text-anchor="middle" x="488.75" y="-275.7" font-family="Arial" font-size="10.00" fill="#2d3436">Cloudflare Pages</text>
<text xml:space="preserve" text-anchor="middle" x="488.75" y="-263.7" font-family="Arial" font-size="10.00" fill="#2d3436">React web</text>
</g>
<!-- 70bba81592134ad991ff78248d66889a&#45;&gt;832b05082b174aa5bd7e22d7f468e066 -->
<g id="edge5" class="edge">
<title>70bba81592134ad991ff78248d66889a&#45;&gt;832b05082b174aa5bd7e22d7f468e066</title>
<path fill="none" stroke="#536476" d="M284.49,-426.09C326.47,-409.14 386.81,-384.77 430.83,-366.99"/>
<polygon fill="#536476" stroke="#536476" points="431.6,-369.32 437.18,-364.43 429.77,-364.78 431.6,-369.32"/>
<text xml:space="preserve" text-anchor="middle" x="361.48" y="-411.25" font-family="Sans-Serif" font-size="13.00" fill="#2d3436">web</text>
</g>
<!-- 7cac8a7ac92044c285eae835e7edf59b -->
<g id="node6" class="node">
<title>7cac8a7ac92044c285eae835e7edf59b</title>
<image xlink:href="/Users/aiden/Documents/Codex/2026-07-01/files-mentioned-by-the-user-you/outputs/inspectiq/.venv-diagrams/lib/python3.14/site-packages/resources/generic/device/mobile.png" width="100.8px" height="100.8px" preserveAspectRatio="xMinYMin meet" x="438.35" y="-592.4"/>
<text xml:space="preserve" text-anchor="middle" x="488.75" y="-473.7" font-family="Arial" font-size="10.00" fill="#2d3436">Expo / React Native</text>
<text xml:space="preserve" text-anchor="middle" x="488.75" y="-461.7" font-family="Arial" font-size="10.00" fill="#2d3436">mobile app</text>
</g>
<!-- 70bba81592134ad991ff78248d66889a&#45;&gt;7cac8a7ac92044c285eae835e7edf59b -->
<g id="edge6" class="edge">
<title>70bba81592134ad991ff78248d66889a&#45;&gt;7cac8a7ac92044c285eae835e7edf59b</title>
<path fill="none" stroke="#536476" d="M284.49,-464.74C326.47,-480.69 386.81,-503.63 430.83,-520.37"/>
<polygon fill="#536476" stroke="#536476" points="429.75,-522.57 437.17,-522.77 431.49,-517.99 429.75,-522.57"/>
<text xml:space="preserve" text-anchor="middle" x="361.48" y="-509.36" font-family="Sans-Serif" font-size="13.00" fill="#2d3436">mobile capture</text>
</g>
<!-- c8619f2cb6f745cb869ba6cc67fad1c5 -->
<g id="node2" class="node">
<title>c8619f2cb6f745cb869ba6cc67fad1c5</title>
<image xlink:href="/Users/aiden/Documents/Codex/2026-07-01/files-mentioned-by-the-user-you/outputs/inspectiq/.venv-diagrams/lib/python3.14/site-packages/resources/onprem/vcs/github.png" width="100.8px" height="100.8px" preserveAspectRatio="xMinYMin meet" x="16" y="-183.4"/>
<text xml:space="preserve" text-anchor="middle" x="66.4" y="-67.1" font-family="Arial" font-size="10.00" fill="#2d3436">GitHub</text>
</g>
<!-- 7be8ac5e3ec8435e87bd676e6041be10 -->
<g id="node3" class="node">
<title>7be8ac5e3ec8435e87bd676e6041be10</title>
<image xlink:href="/Users/aiden/Documents/Codex/2026-07-01/files-mentioned-by-the-user-you/outputs/inspectiq/.venv-diagrams/lib/python3.14/site-packages/resources/onprem/ci/github-actions.png" width="100.8px" height="100.8px" preserveAspectRatio="xMinYMin meet" x="183.8" y="-183.4"/>
<text xml:space="preserve" text-anchor="middle" x="234.2" y="-64.7" font-family="Arial" font-size="10.00" fill="#2d3436">GitHub Actions</text>
<text xml:space="preserve" text-anchor="middle" x="234.2" y="-52.7" font-family="Arial" font-size="10.00" fill="#2d3436">CI + approved deploy</text>
</g>
<!-- c8619f2cb6f745cb869ba6cc67fad1c5&#45;&gt;7be8ac5e3ec8435e87bd676e6041be10 -->
<g id="edge1" class="edge">
<title>c8619f2cb6f745cb869ba6cc67fad1c5&#45;&gt;7be8ac5e3ec8435e87bd676e6041be10</title>
<path fill="none" stroke="#536476" d="M116.7,-133C135.16,-133 156.29,-133 175.45,-133"/>
<polygon fill="#536476" stroke="#536476" points="175.29,-135.45 182.29,-133 175.29,-130.55 175.29,-135.45"/>
</g>
<!-- 282805b71fa24ef3bb8e261dfbd7c974 -->
<g id="node4" class="node">
<title>282805b71fa24ef3bb8e261dfbd7c974</title>
<image xlink:href="/Users/aiden/Documents/Codex/2026-07-01/files-mentioned-by-the-user-you/outputs/inspectiq/.venv-diagrams/lib/python3.14/site-packages/resources/onprem/iac/terraform.png" width="100.8px" height="100.8px" preserveAspectRatio="xMinYMin meet" x="438.35" y="-183.4"/>
<text xml:space="preserve" text-anchor="middle" x="488.75" y="-64.7" font-family="Arial" font-size="10.00" fill="#2d3436">Terraform</text>
<text xml:space="preserve" text-anchor="middle" x="488.75" y="-52.7" font-family="Arial" font-size="10.00" fill="#2d3436">AWS IaC</text>
</g>
<!-- 7be8ac5e3ec8435e87bd676e6041be10&#45;&gt;282805b71fa24ef3bb8e261dfbd7c974 -->
<g id="edge2" class="edge">
<title>7be8ac5e3ec8435e87bd676e6041be10&#45;&gt;282805b71fa24ef3bb8e261dfbd7c974</title>
<path fill="none" stroke="#536476" d="M284.49,-133C326.3,-133 386.31,-133 430.29,-133"/>
<polygon fill="#536476" stroke="#536476" points="430.07,-135.45 437.07,-133 430.07,-130.55 430.07,-135.45"/>
</g>
<!-- 7be8ac5e3ec8435e87bd676e6041be10&#45;&gt;832b05082b174aa5bd7e22d7f468e066 -->
<g id="edge3" class="edge">
<title>7be8ac5e3ec8435e87bd676e6041be10&#45;&gt;832b05082b174aa5bd7e22d7f468e066</title>
<path fill="none" stroke="#536476" d="M284.49,-174.18C326.91,-209.62 388.06,-260.71 432.2,-297.59"/>
<polygon fill="#536476" stroke="#536476" points="430.48,-299.34 437.42,-301.95 433.62,-295.58 430.48,-299.34"/>
<text xml:space="preserve" text-anchor="middle" x="361.48" y="-270.88" font-family="Sans-Serif" font-size="13.00" fill="#2d3436">Pages deploy</text>
</g>
<!-- ab9fcaf10cfb42fcb0a60920a999a1dd -->
<g id="node8" class="node">
<title>ab9fcaf10cfb42fcb0a60920a999a1dd</title>
<image xlink:href="/Users/aiden/Documents/Codex/2026-07-01/files-mentioned-by-the-user-you/outputs/inspectiq/.venv-diagrams/lib/python3.14/site-packages/resources/aws/network/api-gateway.png" width="100.8px" height="100.8px" preserveAspectRatio="xMinYMin meet" x="697.4" y="-592.4"/>
<text xml:space="preserve" text-anchor="middle" x="747.8" y="-473.7" font-family="Arial" font-size="10.00" fill="#2d3436">API Gateway</text>
<text xml:space="preserve" text-anchor="middle" x="747.8" y="-461.7" font-family="Arial" font-size="10.00" fill="#2d3436">HTTP API</text>
</g>
<!-- 282805b71fa24ef3bb8e261dfbd7c974&#45;&gt;ab9fcaf10cfb42fcb0a60920a999a1dd -->
<g id="edge4" class="edge">
<title>282805b71fa24ef3bb8e261dfbd7c974&#45;&gt;ab9fcaf10cfb42fcb0a60920a999a1dd</title>
<path fill="none" stroke="#536476" stroke-dasharray="5,2" d="M538.79,-171.33C579.54,-206.12 635.38,-261.24 664.4,-322.5 687.55,-371.38 662.25,-392.42 681.4,-443 684.67,-451.64 688.81,-460.3 693.4,-468.69"/>
<polygon fill="#536476" stroke="#536476" points="691.21,-469.8 696.8,-474.68 695.47,-467.38 691.21,-469.8"/>
<text xml:space="preserve" text-anchor="middle" x="618.28" y="-323.65" font-family="Sans-Serif" font-size="13.00" fill="#2d3436">approved apply</text>
</g>
<!-- 05d4b965ed0246ed907fcef25fe4c01a -->
<g id="node7" class="node">
<title>05d4b965ed0246ed907fcef25fe4c01a</title>
<image xlink:href="/Users/aiden/Documents/Codex/2026-07-01/files-mentioned-by-the-user-you/outputs/inspectiq/.venv-diagrams/lib/python3.14/site-packages/resources/aws/security/cognito.png" width="100.8px" height="100.8px" preserveAspectRatio="xMinYMin meet" x="697.4" y="-394.4"/>
<text xml:space="preserve" text-anchor="middle" x="747.8" y="-275.7" font-family="Arial" font-size="10.00" fill="#2d3436">Cognito</text>
<text xml:space="preserve" text-anchor="middle" x="747.8" y="-263.7" font-family="Arial" font-size="10.00" fill="#2d3436">OIDC + groups</text>
</g>
<!-- 832b05082b174aa5bd7e22d7f468e066&#45;&gt;05d4b965ed0246ed907fcef25fe4c01a -->
<g id="edge7" class="edge">
<title>832b05082b174aa5bd7e22d7f468e066&#45;&gt;05d4b965ed0246ed907fcef25fe4c01a</title>
<path fill="none" stroke="#536476" d="M539.01,-344C581.87,-344 644.04,-344 689.2,-344"/>
<polygon fill="#536476" stroke="#536476" points="689.2,-346.45 696.2,-344 689.2,-341.55 689.2,-346.45"/>
<text xml:space="preserve" text-anchor="middle" x="618.28" y="-345.15" font-family="Sans-Serif" font-size="13.00" fill="#2d3436">OIDC / PKCE</text>
</g>
<!-- 832b05082b174aa5bd7e22d7f468e066&#45;&gt;ab9fcaf10cfb42fcb0a60920a999a1dd -->
<g id="edge9" class="edge">
<title>832b05082b174aa5bd7e22d7f468e066&#45;&gt;ab9fcaf10cfb42fcb0a60920a999a1dd</title>
<path fill="none" stroke="#536476" d="M539.06,-357.39C583.81,-370.33 645.58,-390.43 664.4,-407.5 677.36,-419.25 672.78,-427.78 681.4,-443 685.05,-449.45 688.97,-456.04 693.01,-462.61"/>
<polygon fill="#536476" stroke="#536476" points="690.85,-463.78 696.63,-468.44 695.01,-461.2 690.85,-463.78"/>
<text xml:space="preserve" text-anchor="middle" x="618.28" y="-408.65" font-family="Sans-Serif" font-size="13.00" fill="#2d3436">REST + JWT</text>
</g>
<!-- 7cac8a7ac92044c285eae835e7edf59b&#45;&gt;05d4b965ed0246ed907fcef25fe4c01a -->
<g id="edge8" class="edge">
<title>7cac8a7ac92044c285eae835e7edf59b&#45;&gt;05d4b965ed0246ed907fcef25fe4c01a</title>
<path fill="none" stroke="#536476" d="M538.85,-514.32C575.02,-492.98 624.63,-461.66 664.4,-429 673.56,-421.47 682.78,-413.03 691.56,-404.45"/>
<polygon fill="#536476" stroke="#536476" points="693.24,-406.23 696.49,-399.57 689.79,-402.75 693.24,-406.23"/>
<text xml:space="preserve" text-anchor="middle" x="618.28" y="-492.41" font-family="Sans-Serif" font-size="13.00" fill="#2d3436">OIDC / PKCE</text>
</g>
<!-- 7cac8a7ac92044c285eae835e7edf59b&#45;&gt;ab9fcaf10cfb42fcb0a60920a999a1dd -->
<g id="edge10" class="edge">
<title>7cac8a7ac92044c285eae835e7edf59b&#45;&gt;ab9fcaf10cfb42fcb0a60920a999a1dd</title>
<path fill="none" stroke="#536476" d="M539.01,-542C581.87,-542 644.04,-542 689.2,-542"/>
<polygon fill="#536476" stroke="#536476" points="689.2,-544.45 696.2,-542 689.2,-539.55 689.2,-544.45"/>
<text xml:space="preserve" text-anchor="middle" x="618.28" y="-543.15" font-family="Sans-Serif" font-size="13.00" fill="#2d3436">REST + JWT</text>
</g>
<!-- 997c84af25c449759c6832f20445058f -->
<g id="node9" class="node">
<title>997c84af25c449759c6832f20445058f</title>
<image xlink:href="/Users/aiden/Documents/Codex/2026-07-01/files-mentioned-by-the-user-you/outputs/inspectiq/.venv-diagrams/lib/python3.14/site-packages/resources/aws/compute/lambda.png" width="100.8px" height="100.8px" preserveAspectRatio="xMinYMin meet" x="935.45" y="-483.4"/>
<text xml:space="preserve" text-anchor="middle" x="985.85" y="-364.7" font-family="Arial" font-size="10.00" fill="#2d3436">Node.js Lambda API</text>
<text xml:space="preserve" text-anchor="middle" x="985.85" y="-352.7" font-family="Arial" font-size="10.00" fill="#2d3436">JWT + RBAC</text>
</g>
<!-- ab9fcaf10cfb42fcb0a60920a999a1dd&#45;&gt;997c84af25c449759c6832f20445058f -->
<g id="edge11" class="edge">
<title>ab9fcaf10cfb42fcb0a60920a999a1dd&#45;&gt;997c84af25c449759c6832f20445058f</title>
<path fill="none" stroke="#536476" d="M798,-519.28C836.03,-501.72 888.72,-477.39 928.45,-459.04"/>
<polygon fill="#536476" stroke="#536476" points="929.01,-461.48 934.34,-456.32 926.96,-457.03 929.01,-461.48"/>
</g>
<!-- ec89c483f7ad4823b2afba64ade3ff2c -->
<g id="node11" class="node">
<title>ec89c483f7ad4823b2afba64ade3ff2c</title>
<image xlink:href="/Users/aiden/Documents/Codex/2026-07-01/files-mentioned-by-the-user-you/outputs/inspectiq/.venv-diagrams/lib/python3.14/site-packages/resources/aws/integration/simple-queue-service-sqs.png" width="100.8px" height="100.8px" preserveAspectRatio="xMinYMin meet" x="1205.75" y="-394.4"/>
<text xml:space="preserve" text-anchor="middle" x="1256.15" y="-275.7" font-family="Arial" font-size="10.00" fill="#2d3436">SQS</text>
<text xml:space="preserve" text-anchor="middle" x="1256.15" y="-263.7" font-family="Arial" font-size="10.00" fill="#2d3436">image jobs</text>
</g>
<!-- 997c84af25c449759c6832f20445058f&#45;&gt;ec89c483f7ad4823b2afba64ade3ff2c -->
<g id="edge15" class="edge">
<title>997c84af25c449759c6832f20445058f&#45;&gt;ec89c483f7ad4823b2afba64ade3ff2c</title>
<path fill="none" stroke="#536476" d="M1036.06,-416.68C1081.77,-401.51 1149.84,-378.93 1197.96,-362.97"/>
<polygon fill="#536476" stroke="#536476" points="1198.49,-365.38 1204.36,-360.85 1196.95,-360.73 1198.49,-365.38"/>
<text xml:space="preserve" text-anchor="middle" x="1121" y="-405.36" font-family="Sans-Serif" font-size="13.00" fill="#2d3436">enqueue</text>
</g>
<!-- c23b5990d07746348dd565868833d889 -->
<g id="node14" class="node">
<title>c23b5990d07746348dd565868833d889</title>
<image xlink:href="/Users/aiden/Documents/Codex/2026-07-01/files-mentioned-by-the-user-you/outputs/inspectiq/.venv-diagrams/lib/python3.14/site-packages/resources/aws/storage/simple-storage-service-s3.png" width="100.8px" height="100.8px" preserveAspectRatio="xMinYMin meet" x="1205.75" y="-592.4"/>
<text xml:space="preserve" text-anchor="middle" x="1256.15" y="-473.7" font-family="Arial" font-size="10.00" fill="#2d3436">Private S3</text>
<text xml:space="preserve" text-anchor="middle" x="1256.15" y="-461.7" font-family="Arial" font-size="10.00" fill="#2d3436">vehicle evidence</text>
</g>
<!-- 997c84af25c449759c6832f20445058f&#45;&gt;c23b5990d07746348dd565868833d889 -->
<g id="edge14" class="edge">
<title>997c84af25c449759c6832f20445058f&#45;&gt;c23b5990d07746348dd565868833d889</title>
<path fill="none" stroke="#536476" d="M1022.94,-515.63C1034.93,-533.76 1050.23,-550.62 1069.25,-561 1108.47,-582.4 1159.28,-575.28 1197.87,-564.13"/>
<polygon fill="#536476" stroke="#536476" points="1198.47,-566.51 1204.47,-562.13 1197.06,-561.81 1198.47,-566.51"/>
<text xml:space="preserve" text-anchor="middle" x="1121" y="-575.95" font-family="Sans-Serif" font-size="13.00" fill="#2d3436">presigned upload</text>
</g>
<!-- abc03ebb94794e0c8cc9c14cca73624b -->
<g id="node16" class="node">
<title>abc03ebb94794e0c8cc9c14cca73624b</title>
<image xlink:href="/Users/aiden/Documents/Codex/2026-07-01/files-mentioned-by-the-user-you/outputs/inspectiq/.venv-diagrams/lib/python3.14/site-packages/resources/aws/integration/eventbridge-custom-event-bus-resource.png" width="100.8px" height="100.8px" preserveAspectRatio="xMinYMin meet" x="1727.6" y="-971.4"/>
<text xml:space="preserve" text-anchor="middle" x="1778" y="-852.7" font-family="Arial" font-size="10.00" fill="#2d3436">EventBridge</text>
<text xml:space="preserve" text-anchor="middle" x="1778" y="-840.7" font-family="Arial" font-size="10.00" fill="#2d3436">domain bus</text>
</g>
<!-- 997c84af25c449759c6832f20445058f&#45;&gt;abc03ebb94794e0c8cc9c14cca73624b -->
<g id="edge21" class="edge">
<title>997c84af25c449759c6832f20445058f&#45;&gt;abc03ebb94794e0c8cc9c14cca73624b</title>
<path fill="none" stroke="#536476" d="M1004.63,-515.69C1029.06,-607.93 1082.38,-754.1 1186.78,-830 1271.19,-891.37 1587.88,-912.5 1719.29,-918.72"/>
<polygon fill="#536476" stroke="#536476" points="1719.06,-921.16 1726.16,-919.04 1719.29,-916.27 1719.06,-921.16"/>
<text xml:space="preserve" text-anchor="middle" x="1391.68" y="-896.89" font-family="Sans-Serif" font-size="13.00" fill="#2d3436">outbox events</text>
</g>
<!-- cd34d0b035484124b4a4a158764ee7d6 -->
<g id="node18" class="node">
<title>cd34d0b035484124b4a4a158764ee7d6</title>
<image xlink:href="/Users/aiden/Documents/Codex/2026-07-01/files-mentioned-by-the-user-you/outputs/inspectiq/.venv-diagrams/lib/python3.14/site-packages/resources/aws/database/dynamodb.png" width="100.8px" height="100.8px" preserveAspectRatio="xMinYMin meet" x="2286.95" y="-1071.4"/>
<text xml:space="preserve" text-anchor="middle" x="2337.35" y="-952.7" font-family="Arial" font-size="10.00" fill="#2d3436">DynamoDB on&#45;demand</text>
<text xml:space="preserve" text-anchor="middle" x="2337.35" y="-940.7" font-family="Arial" font-size="10.00" fill="#2d3436">idempotency + ops state</text>
</g>
<!-- 997c84af25c449759c6832f20445058f&#45;&gt;cd34d0b035484124b4a4a158764ee7d6 -->
<g id="edge26" class="edge">
<title>997c84af25c449759c6832f20445058f&#45;&gt;cd34d0b035484124b4a4a158764ee7d6</title>
<path fill="none" stroke="#536476" d="M993.21,-515.48C1001.8,-585.79 1021.98,-687.22 1069.25,-763 1171.46,-926.86 1347.58,-1100.66 1719.6,-1220 1945.8,-1292.56 2057.79,-1365.98 2253.95,-1232 2293.54,-1204.96 2314.11,-1155.82 2324.8,-1111.77"/>
<polygon fill="#536476" stroke="#536476" points="2327.15,-1112.45 2326.34,-1105.08 2322.38,-1111.35 2327.15,-1112.45"/>
<text xml:space="preserve" text-anchor="middle" x="1652.6" y="-1212.53" font-family="Sans-Serif" font-size="13.00" fill="#2d3436">usage guard</text>
</g>
<!-- 59c0ee09f1d14504a870796280880706 -->
<g id="node22" class="node">
<title>59c0ee09f1d14504a870796280880706</title>
<image xlink:href="/Users/aiden/Documents/Codex/2026-07-01/files-mentioned-by-the-user-you/outputs/inspectiq/.venv-diagrams/lib/python3.14/site-packages/resources/onprem/database/postgresql.png" width="100.8px" height="100.8px" preserveAspectRatio="xMinYMin meet" x="1205.75" y="-175.4"/>
<text xml:space="preserve" text-anchor="middle" x="1256.15" y="-56.7" font-family="Arial" font-size="10.00" fill="#2d3436">Neon Postgres</text>
<text xml:space="preserve" text-anchor="middle" x="1256.15" y="-44.7" font-family="Arial" font-size="10.00" fill="#2d3436">authoritative workflow</text>
</g>
<!-- 997c84af25c449759c6832f20445058f&#45;&gt;59c0ee09f1d14504a870796280880706 -->
<g id="edge13" class="edge">
<title>997c84af25c449759c6832f20445058f&#45;&gt;59c0ee09f1d14504a870796280880706</title>
<path fill="none" stroke="#536476" d="M1036.06,-376.51C1082.53,-323.16 1152.09,-243.3 1200.32,-187.94"/>
<polygon fill="#536476" stroke="#536476" points="1202.05,-189.68 1204.8,-182.8 1198.36,-186.46 1202.05,-189.68"/>
<text xml:space="preserve" text-anchor="middle" x="1121" y="-334.53" font-family="Sans-Serif" font-size="13.00" fill="#2d3436">row transaction</text>
</g>
<!-- 8e665609a3ac43fe93a326b2caa0d2fd -->
<g id="node10" class="node">
<title>8e665609a3ac43fe93a326b2caa0d2fd</title>
<image xlink:href="/Users/aiden/Documents/Codex/2026-07-01/files-mentioned-by-the-user-you/outputs/inspectiq/.venv-diagrams/lib/python3.14/site-packages/resources/aws/security/secrets-manager.png" width="100.8px" height="100.8px" preserveAspectRatio="xMinYMin meet" x="697.4" y="-790.4"/>
<text xml:space="preserve" text-anchor="middle" x="747.8" y="-671.7" font-family="Arial" font-size="10.00" fill="#2d3436">Secrets Manager</text>
<text xml:space="preserve" text-anchor="middle" x="747.8" y="-659.7" font-family="Arial" font-size="10.00" fill="#2d3436">Neon URL</text>
</g>
<!-- 8e665609a3ac43fe93a326b2caa0d2fd&#45;&gt;997c84af25c449759c6832f20445058f -->
<g id="edge12" class="edge">
<title>8e665609a3ac43fe93a326b2caa0d2fd&#45;&gt;997c84af25c449759c6832f20445058f</title>
<path fill="none" stroke="#536476" d="M798,-676.02C836.67,-625.71 890.51,-555.69 930.47,-503.73"/>
<polygon fill="#536476" stroke="#536476" points="932.27,-505.41 934.59,-498.36 928.38,-502.42 932.27,-505.41"/>
<text xml:space="preserve" text-anchor="middle" x="866.83" y="-633.09" font-family="Sans-Serif" font-size="13.00" fill="#2d3436">pooled URL</text>
</g>
<!-- 5ef11fcbea644a6ba204bb5bfbb6ed52 -->
<g id="node12" class="node">
<title>5ef11fcbea644a6ba204bb5bfbb6ed52</title>
<image xlink:href="/Users/aiden/Documents/Codex/2026-07-01/files-mentioned-by-the-user-you/outputs/inspectiq/.venv-diagrams/lib/python3.14/site-packages/resources/aws/compute/lambda.png" width="100.8px" height="100.8px" preserveAspectRatio="xMinYMin meet" x="1476.8" y="-575.4"/>
<text xml:space="preserve" text-anchor="middle" x="1527.2" y="-456.7" font-family="Arial" font-size="10.00" fill="#2d3436">Node.js Lambda</text>
<text xml:space="preserve" text-anchor="middle" x="1527.2" y="-444.7" font-family="Arial" font-size="10.00" fill="#2d3436">image worker</text>
</g>
<!-- ec89c483f7ad4823b2afba64ade3ff2c&#45;&gt;5ef11fcbea644a6ba204bb5bfbb6ed52 -->
<g id="edge16" class="edge">
<title>ec89c483f7ad4823b2afba64ade3ff2c&#45;&gt;5ef11fcbea644a6ba204bb5bfbb6ed52</title>
<path fill="none" stroke="#536476" d="M1306.5,-377.2C1352.77,-408.33 1421.88,-454.82 1470.19,-487.32"/>
<polygon fill="#536476" stroke="#536476" points="1468.73,-489.29 1475.91,-491.17 1471.47,-485.23 1468.73,-489.29"/>
</g>
<!-- d564eb7228cd46e688872ba671bb3a17 -->
<g id="node15" class="node">
<title>d564eb7228cd46e688872ba671bb3a17</title>
<image xlink:href="/Users/aiden/Documents/Codex/2026-07-01/files-mentioned-by-the-user-you/outputs/inspectiq/.venv-diagrams/lib/python3.14/site-packages/resources/aws/integration/simple-queue-service-sqs.png" width="100.8px" height="100.8px" preserveAspectRatio="xMinYMin meet" x="1205.75" y="-775.4"/>
<text xml:space="preserve" text-anchor="middle" x="1256.15" y="-659.1" font-family="Arial" font-size="10.00" fill="#2d3436">Image&#45;job DLQ</text>
</g>
<!-- ec89c483f7ad4823b2afba64ade3ff2c&#45;&gt;d564eb7228cd46e688872ba671bb3a17 -->
<g id="edge18" class="edge">
<title>ec89c483f7ad4823b2afba64ade3ff2c&#45;&gt;d564eb7228cd46e688872ba671bb3a17</title>
<path fill="none" stroke="#536476" d="M1205.88,-393.49C1172.39,-430.17 1131.29,-483.32 1112.98,-539.25 1093.14,-599.86 1151.18,-655.84 1199.22,-690.16"/>
<polygon fill="#536476" stroke="#536476" points="1197.54,-691.98 1204.68,-693.99 1200.36,-687.97 1197.54,-691.98"/>
<text xml:space="preserve" text-anchor="middle" x="1121" y="-540.4" font-family="Sans-Serif" font-size="13.00" fill="#2d3436">failed jobs</text>
</g>
<!-- 00ad8372183d49a29329d170530aa749 -->
<g id="node13" class="node">
<title>00ad8372183d49a29329d170530aa749</title>
<image xlink:href="/Users/aiden/Documents/Codex/2026-07-01/files-mentioned-by-the-user-you/outputs/inspectiq/.venv-diagrams/lib/python3.14/site-packages/resources/aws/ml/bedrock.png" width="100.8px" height="100.8px" preserveAspectRatio="xMinYMin meet" x="1727.6" y="-575.4"/>
<text xml:space="preserve" text-anchor="middle" x="1778" y="-456.7" font-family="Arial" font-size="10.00" fill="#2d3436">Bedrock</text>
<text xml:space="preserve" text-anchor="middle" x="1778" y="-444.7" font-family="Arial" font-size="10.00" fill="#2d3436">multimodal</text>
</g>
<!-- 5ef11fcbea644a6ba204bb5bfbb6ed52&#45;&gt;00ad8372183d49a29329d170530aa749 -->
<g id="edge17" class="edge">
<title>5ef11fcbea644a6ba204bb5bfbb6ed52&#45;&gt;00ad8372183d49a29329d170530aa749</title>
<path fill="none" stroke="#536476" d="M1577.35,-525C1618.25,-525 1676.51,-525 1719.55,-525"/>
<polygon fill="#536476" stroke="#536476" points="1719.43,-527.45 1726.43,-525 1719.43,-522.55 1719.43,-527.45"/>
<text xml:space="preserve" text-anchor="middle" x="1652.6" y="-526.15" font-family="Sans-Serif" font-size="13.00" fill="#2d3436">vision + OCR</text>
</g>
<!-- 5ef11fcbea644a6ba204bb5bfbb6ed52&#45;&gt;c23b5990d07746348dd565868833d889 -->
<g id="edge19" class="edge">
<title>5ef11fcbea644a6ba204bb5bfbb6ed52&#45;&gt;c23b5990d07746348dd565868833d889</title>
<path fill="none" stroke="#536476" d="M1477.16,-528.1C1431.47,-530.99 1363.31,-535.29 1314.98,-538.35"/>
<polygon fill="#536476" stroke="#536476" points="1314.84,-535.9 1308.01,-538.79 1315.15,-540.79 1314.84,-535.9"/>
<text xml:space="preserve" text-anchor="middle" x="1391.68" y="-537.65" font-family="Sans-Serif" font-size="13.00" fill="#2d3436">read evidence</text>
</g>
<!-- 5ef11fcbea644a6ba204bb5bfbb6ed52&#45;&gt;abc03ebb94794e0c8cc9c14cca73624b -->
<g id="edge22" class="edge">
<title>5ef11fcbea644a6ba204bb5bfbb6ed52&#45;&gt;abc03ebb94794e0c8cc9c14cca73624b</title>
<path fill="none" stroke="#536476" d="M1577.52,-603.71C1616.15,-665.31 1671.25,-753.14 1719.6,-830 1720.86,-832 1722.13,-834.03 1723.42,-836.07"/>
<polygon fill="#536476" stroke="#536476" points="1721.22,-837.17 1727.02,-841.79 1725.36,-834.56 1721.22,-837.17"/>
<text xml:space="preserve" text-anchor="middle" x="1652.6" y="-789.69" font-family="Sans-Serif" font-size="13.00" fill="#2d3436">outbox events</text>
</g>
<!-- 5ef11fcbea644a6ba204bb5bfbb6ed52&#45;&gt;59c0ee09f1d14504a870796280880706 -->
<g id="edge20" class="edge">
<title>5ef11fcbea644a6ba204bb5bfbb6ed52&#45;&gt;59c0ee09f1d14504a870796280880706</title>
<path fill="none" stroke="#536476" d="M1480.86,-442.5C1469.2,-422.3 1456.38,-400.91 1443.8,-381.5 1401.87,-316.82 1349.99,-246.19 1311.58,-195.45"/>
<polygon fill="#536476" stroke="#536476" points="1313.59,-194.04 1307.41,-189.95 1309.69,-197.01 1313.59,-194.04"/>
<text xml:space="preserve" text-anchor="middle" x="1391.68" y="-382.65" font-family="Sans-Serif" font-size="13.00" fill="#2d3436">validated findings</text>
</g>
<!-- c996efce1ce04393834fe54f93efe6c0 -->
<g id="node17" class="node">
<title>c996efce1ce04393834fe54f93efe6c0</title>
<image xlink:href="/Users/aiden/Documents/Codex/2026-07-01/files-mentioned-by-the-user-you/outputs/inspectiq/.venv-diagrams/lib/python3.14/site-packages/resources/aws/compute/lambda.png" width="100.8px" height="100.8px" preserveAspectRatio="xMinYMin meet" x="1996.4" y="-1071.4"/>
<text xml:space="preserve" text-anchor="middle" x="2046.8" y="-952.7" font-family="Arial" font-size="10.00" fill="#2d3436">Python 3.12 Lambda</text>
<text xml:space="preserve" text-anchor="middle" x="2046.8" y="-940.7" font-family="Arial" font-size="10.00" fill="#2d3436">operations projector</text>
</g>
<!-- abc03ebb94794e0c8cc9c14cca73624b&#45;&gt;c996efce1ce04393834fe54f93efe6c0 -->
<g id="edge23" class="edge">
<title>abc03ebb94794e0c8cc9c14cca73624b&#45;&gt;c996efce1ce04393834fe54f93efe6c0</title>
<path fill="none" stroke="#536476" d="M1828.25,-939.46C1873.74,-956.51 1941.32,-981.84 1989.06,-999.73"/>
<polygon fill="#536476" stroke="#536476" points="1988.01,-1001.96 1995.42,-1002.12 1989.73,-997.37 1988.01,-1001.96"/>
<text xml:space="preserve" text-anchor="middle" x="1912.4" y="-989.8" font-family="Sans-Serif" font-size="13.00" fill="#2d3436">versioned events</text>
</g>
<!-- f9406c33076c4c3996a926f6a56f0904 -->
<g id="node19" class="node">
<title>f9406c33076c4c3996a926f6a56f0904</title>
<image xlink:href="/Users/aiden/Documents/Codex/2026-07-01/files-mentioned-by-the-user-you/outputs/inspectiq/.venv-diagrams/lib/python3.14/site-packages/resources/aws/integration/simple-queue-service-sqs.png" width="100.8px" height="100.8px" preserveAspectRatio="xMinYMin meet" x="1727.6" y="-1186.4"/>
<text xml:space="preserve" text-anchor="middle" x="1778" y="-1070.1" font-family="Arial" font-size="10.00" fill="#2d3436">Domain&#45;event DLQ</text>
</g>
<!-- abc03ebb94794e0c8cc9c14cca73624b&#45;&gt;f9406c33076c4c3996a926f6a56f0904 -->
<g id="edge25" class="edge">
<title>abc03ebb94794e0c8cc9c14cca73624b&#45;&gt;f9406c33076c4c3996a926f6a56f0904</title>
<path fill="none" stroke="#536476" d="M1778,-1003.51C1778,-1021.89 1778,-1041.31 1778,-1059.44"/>
<polygon fill="#536476" stroke="#536476" points="1775.55,-1059.15 1778,-1066.15 1780.45,-1059.15 1775.55,-1059.15"/>
<text xml:space="preserve" text-anchor="middle" x="1768.25" y="-1030.1" font-family="Sans-Serif" font-size="13.00" fill="#2d3436">failed delivery</text>
</g>
<!-- c996efce1ce04393834fe54f93efe6c0&#45;&gt;cd34d0b035484124b4a4a158764ee7d6 -->
<g id="edge24" class="edge">
<title>c996efce1ce04393834fe54f93efe6c0&#45;&gt;cd34d0b035484124b4a4a158764ee7d6</title>
<path fill="none" stroke="#536476" d="M2097.08,-1021C2147.5,-1021 2225.78,-1021 2278.97,-1021"/>
<polygon fill="#536476" stroke="#536476" points="2278.76,-1023.45 2285.76,-1021 2278.76,-1018.55 2278.76,-1023.45"/>
</g>
<!-- f7be9d58484f4891b3b411c95e29d777 -->
<g id="node20" class="node">
<title>f7be9d58484f4891b3b411c95e29d777</title>
<image xlink:href="/Users/aiden/Documents/Codex/2026-07-01/files-mentioned-by-the-user-you/outputs/inspectiq/.venv-diagrams/lib/python3.14/site-packages/resources/aws/management/cloudwatch.png" width="100.8px" height="100.8px" preserveAspectRatio="xMinYMin meet" x="2286.95" y="-1382.4"/>
<text xml:space="preserve" text-anchor="middle" x="2337.35" y="-1263.7" font-family="Arial" font-size="10.00" fill="#2d3436">CloudWatch + X&#45;Ray</text>
<text xml:space="preserve" text-anchor="middle" x="2337.35" y="-1251.7" font-family="Arial" font-size="10.00" fill="#2d3436">logs metrics traces alarms</text>
</g>
<!-- c996efce1ce04393834fe54f93efe6c0&#45;&gt;f7be9d58484f4891b3b411c95e29d777 -->
<g id="edge27" class="edge">
<title>c996efce1ce04393834fe54f93efe6c0&#45;&gt;f7be9d58484f4891b3b411c95e29d777</title>
<path fill="none" stroke="#536476" d="M2097.08,-1074.11C2148.25,-1129.26 2228.12,-1215.35 2281.33,-1272.7"/>
<polygon fill="#536476" stroke="#536476" points="2279.45,-1274.27 2286.01,-1277.74 2283.04,-1270.94 2279.45,-1274.27"/>
<text xml:space="preserve" text-anchor="middle" x="2192.08" y="-1241.25" font-family="Sans-Serif" font-size="13.00" fill="#2d3436">all Lambda telemetry</text>
</g>
<!-- 0a69ac02e5554e27b6a5e4a1f5806b7a -->
<g id="node21" class="node">
<title>0a69ac02e5554e27b6a5e4a1f5806b7a</title>
<image xlink:href="/Users/aiden/Documents/Codex/2026-07-01/files-mentioned-by-the-user-you/outputs/inspectiq/.venv-diagrams/lib/python3.14/site-packages/resources/aws/integration/simple-notification-service-sns.png" width="100.8px" height="100.8px" preserveAspectRatio="xMinYMin meet" x="2493.5" y="-1382.4"/>
<text xml:space="preserve" text-anchor="middle" x="2543.9" y="-1263.7" font-family="Arial" font-size="10.00" fill="#2d3436">SNS</text>
<text xml:space="preserve" text-anchor="middle" x="2543.9" y="-1251.7" font-family="Arial" font-size="10.00" fill="#2d3436">operator alerts</text>
</g>
<!-- f7be9d58484f4891b3b411c95e29d777&#45;&gt;0a69ac02e5554e27b6a5e4a1f5806b7a -->
<g id="edge28" class="edge">
<title>f7be9d58484f4891b3b411c95e29d777&#45;&gt;0a69ac02e5554e27b6a5e4a1f5806b7a</title>
<path fill="none" stroke="#536476" d="M2387.61,-1332C2417,-1332 2454.46,-1332 2485.23,-1332"/>
<polygon fill="#536476" stroke="#536476" points="2485.2,-1334.45 2492.2,-1332 2485.2,-1329.55 2485.2,-1334.45"/>
<text xml:space="preserve" text-anchor="middle" x="2440.63" y="-1333.15" font-family="Sans-Serif" font-size="13.00" fill="#2d3436">alarms</text>
</g>
</g>
</svg>
