<?xml version="1.0" encoding="UTF-8" standalone="no"?>
<!DOCTYPE svg PUBLIC "-//W3C//DTD SVG 1.1//EN"
 "http://www.w3.org/Graphics/SVG/1.1/DTD/svg11.dtd">
<!-- Generated by graphviz version 15.0.0 (20260523.1842)
 -->
<!-- Title: InspectIQ AWS Architecture Pages: 1 -->
<svg width="2270pt" height="1206pt"
 viewBox="0.00 0.00 2270.00 1206.00" xmlns="http://www.w3.org/2000/svg" xmlns:xlink="http://www.w3.org/1999/xlink">
<g id="graph0" class="graph" transform="scale(1 1) rotate(0) translate(32.4 1173.4)">
<title>InspectIQ AWS Architecture</title>
<polygon fill="white" stroke="none" points="-32.4,32.4 -32.4,-1173.4 2238.03,-1173.4 2238.03,32.4 -32.4,32.4"/>
<text xml:space="preserve" text-anchor="middle" x="1102.81" y="-7.75" font-family="Arial" font-size="15.00" fill="#2d3436">InspectIQ AWS Architecture</text>
<g id="clust1" class="cluster">
<title>cluster_Frontend (external)</title>
<path fill="#e5f5fd" stroke="#aeb6be" d="M506.85,-425C506.85,-425 600.1,-425 600.1,-425 606.1,-425 612.1,-431 612.1,-437 612.1,-437 612.1,-616 612.1,-616 612.1,-622 606.1,-628 600.1,-628 600.1,-628 506.85,-628 506.85,-628 500.85,-628 494.85,-622 494.85,-616 494.85,-616 494.85,-437 494.85,-437 494.85,-431 500.85,-425 506.85,-425"/>
<text xml:space="preserve" text-anchor="middle" x="553.48" y="-612.6" font-family="Sans-Serif" font-size="12.00" fill="#2d3436">Frontend (external)</text>
</g>
<g id="clust2" class="cluster">
<title>cluster_Delivery</title>
<path fill="#e5f5fd" stroke="#aeb6be" d="M20,-202C20,-202 599.38,-202 599.38,-202 605.38,-202 611.38,-208 611.38,-214 611.38,-214 611.38,-393 611.38,-393 611.38,-399 605.38,-405 599.38,-405 599.38,-405 20,-405 20,-405 14,-405 8,-399 8,-393 8,-393 8,-214 8,-214 8,-208 14,-202 20,-202"/>
<text xml:space="preserve" text-anchor="middle" x="38.12" y="-389.6" font-family="Sans-Serif" font-size="12.00" fill="#2d3436">Delivery</text>
</g>
<g id="clust3" class="cluster">
<title>cluster_AWS us&#45;east&#45;1</title>
<path fill="#e5f5fd" stroke="#aeb6be" d="M766.6,-245C766.6,-245 2185.63,-245 2185.63,-245 2191.63,-245 2197.63,-251 2197.63,-257 2197.63,-257 2197.63,-1121 2197.63,-1121 2197.63,-1127 2191.63,-1133 2185.63,-1133 2185.63,-1133 766.6,-1133 766.6,-1133 760.6,-1133 754.6,-1127 754.6,-1121 754.6,-1121 754.6,-257 754.6,-257 754.6,-251 760.6,-245 766.6,-245"/>
<text xml:space="preserve" text-anchor="middle" x="802.35" y="-1117.6" font-family="Sans-Serif" font-size="12.00" fill="#2d3436">AWS us&#45;east&#45;1</text>
</g>
<g id="clust4" class="cluster">
<title>cluster_Identity + API</title>
<path fill="#ebf3e7" stroke="#aeb6be" d="M774.6,-462C774.6,-462 1340,-462 1340,-462 1346,-462 1352,-468 1352,-474 1352,-474 1352,-653 1352,-653 1352,-659 1346,-665 1340,-665 1340,-665 774.6,-665 774.6,-665 768.6,-665 762.6,-659 762.6,-653 762.6,-653 762.6,-474 762.6,-474 762.6,-468 768.6,-462 774.6,-462"/>
<text xml:space="preserve" text-anchor="middle" x="805.48" y="-649.6" font-family="Sans-Serif" font-size="12.00" fill="#2d3436">Identity + API</text>
</g>
<g id="clust5" class="cluster">
<title>cluster_Data + Images</title>
<path fill="#ebf3e7" stroke="#aeb6be" d="M2084.83,-253C2084.83,-253 2177.63,-253 2177.63,-253 2183.63,-253 2189.63,-259 2189.63,-265 2189.63,-265 2189.63,-660 2189.63,-660 2189.63,-666 2183.63,-672 2177.63,-672 2177.63,-672 2084.83,-672 2084.83,-672 2078.83,-672 2072.83,-666 2072.83,-660 2072.83,-660 2072.83,-265 2072.83,-265 2072.83,-259 2078.83,-253 2084.83,-253"/>
<text xml:space="preserve" text-anchor="middle" x="2119.45" y="-656.6" font-family="Sans-Serif" font-size="12.00" fill="#2d3436">Data + Images</text>
</g>
<g id="clust6" class="cluster">
<title>cluster_Async Image Analysis</title>
<path fill="#ebf3e7" stroke="#aeb6be" d="M1504,-436C1504,-436 1884.35,-436 1884.35,-436 1890.35,-436 1896.35,-442 1896.35,-448 1896.35,-448 1896.35,-813 1896.35,-813 1896.35,-819 1890.35,-825 1884.35,-825 1884.35,-825 1504,-825 1504,-825 1498,-825 1492,-819 1492,-813 1492,-813 1492,-448 1492,-448 1492,-442 1498,-436 1504,-436"/>
<text xml:space="preserve" text-anchor="middle" x="1558.5" y="-809.6" font-family="Sans-Serif" font-size="12.00" fill="#2d3436">Async Image Analysis</text>
</g>
<g id="clust7" class="cluster">
<title>cluster_AI + Operations</title>
<path fill="#ebf3e7" stroke="#aeb6be" d="M2084.83,-685C2084.83,-685 2177.63,-685 2177.63,-685 2183.63,-685 2189.63,-691 2189.63,-697 2189.63,-697 2189.63,-1092 2189.63,-1092 2189.63,-1098 2183.63,-1104 2177.63,-1104 2177.63,-1104 2084.83,-1104 2084.83,-1104 2078.83,-1104 2072.83,-1098 2072.83,-1092 2072.83,-1092 2072.83,-697 2072.83,-697 2072.83,-691 2078.83,-685 2084.83,-685"/>
<text xml:space="preserve" text-anchor="middle" x="2122.08" y="-1088.6" font-family="Sans-Serif" font-size="12.00" fill="#2d3436">AI + Operations</text>
</g>
<g id="clust8" class="cluster">
<title>cluster_External Data Service</title>
<path fill="#e5f5fd" stroke="#aeb6be" d="M2077.6,-34C2077.6,-34 2185.85,-34 2185.85,-34 2191.85,-34 2197.85,-40 2197.85,-46 2197.85,-46 2197.85,-225 2197.85,-225 2197.85,-231 2191.85,-237 2185.85,-237 2185.85,-237 2077.6,-237 2077.6,-237 2071.6,-237 2065.6,-231 2065.6,-225 2065.6,-225 2065.6,-46 2065.6,-46 2065.6,-40 2071.6,-34 2077.6,-34"/>
<text xml:space="preserve" text-anchor="middle" x="2131.73" y="-221.6" font-family="Sans-Serif" font-size="12.00" fill="#2d3436">External Data Service</text>
</g>
<!-- fa3685d77c2f42f5a67f708f21b3bc23 -->
<g id="node1" class="node">
<title>fa3685d77c2f42f5a67f708f21b3bc23</title>
<image xlink:href="/Users/aiden/Documents/Codex/2026-07-01/files-mentioned-by-the-user-you/outputs/inspectiq/.venv-diagrams/lib/python3.14/site-packages/resources/onprem/client/users.png" width="100.8px" height="100.8px" preserveAspectRatio="xMinYMin meet" x="207.8" y="-573.4"/>
<text xml:space="preserve" text-anchor="middle" x="258.2" y="-455.85" font-family="Arial" font-size="11.00" fill="#2d3436">Inspectors</text>
<text xml:space="preserve" text-anchor="middle" x="258.2" y="-442.35" font-family="Arial" font-size="11.00" fill="#2d3436">Reviewers</text>
<text xml:space="preserve" text-anchor="middle" x="258.2" y="-428.85" font-family="Arial" font-size="11.00" fill="#2d3436">Admins</text>
</g>
<!-- 7a8bafeb59ae4a4c8aeb835d1a1df723 -->
<g id="node2" class="node">
<title>7a8bafeb59ae4a4c8aeb835d1a1df723</title>
<image xlink:href="/Users/aiden/Documents/Codex/2026-07-01/files-mentioned-by-the-user-you/outputs/inspectiq/.venv-diagrams/lib/python3.14/site-packages/resources/saas/cdn/cloudflare.png" width="100.8px" height="45.2812px" preserveAspectRatio="xMinYMin meet" x="502.575" y="-538.641"/>
<text xml:space="preserve" text-anchor="middle" x="552.98" y="-449.75" font-family="Arial" font-size="11.00" fill="#2d3436">Cloudflare Pages</text>
<text xml:space="preserve" text-anchor="middle" x="552.98" y="-436.25" font-family="Arial" font-size="11.00" fill="#2d3436">React/Vite</text>
</g>
<!-- fa3685d77c2f42f5a67f708f21b3bc23&#45;&gt;7a8bafeb59ae4a4c8aeb835d1a1df723 -->
<g id="edge1" class="edge">
<title>fa3685d77c2f42f5a67f708f21b3bc23&#45;&gt;7a8bafeb59ae4a4c8aeb835d1a1df723</title>
<path fill="none" stroke="#536476" d="M308.53,-521.82C359.79,-520.6 439.92,-518.68 494.13,-517.38"/>
<polygon fill="#536476" stroke="#536476" points="493.98,-520.01 501.41,-517.21 493.85,-514.76 493.98,-520.01"/>
<text xml:space="preserve" text-anchor="middle" x="405.72" y="-521.89" font-family="Sans-Serif" font-size="13.00" fill="#2d3436">workbench</text>
</g>
<!-- 18eb9d423928499cbbca615a5df84208 -->
<g id="node6" class="node">
<title>18eb9d423928499cbbca615a5df84208</title>
<image xlink:href="/Users/aiden/Documents/Codex/2026-07-01/files-mentioned-by-the-user-you/outputs/inspectiq/.venv-diagrams/lib/python3.14/site-packages/resources/aws/security/cognito.png" width="100.8px" height="100.8px" preserveAspectRatio="xMinYMin meet" x="770.6" y="-603.4"/>
<text xml:space="preserve" text-anchor="middle" x="821" y="-486.75" font-family="Arial" font-size="11.00" fill="#2d3436">Cognito</text>
<text xml:space="preserve" text-anchor="middle" x="821" y="-473.25" font-family="Arial" font-size="11.00" fill="#2d3436">OIDC + groups</text>
</g>
<!-- 7a8bafeb59ae4a4c8aeb835d1a1df723&#45;&gt;18eb9d423928499cbbca615a5df84208 -->
<g id="edge2" class="edge">
<title>7a8bafeb59ae4a4c8aeb835d1a1df723&#45;&gt;18eb9d423928499cbbca615a5df84208</title>
<path fill="none" stroke="#536476" d="M603.08,-522.83C648.02,-529.08 714.57,-538.34 762.09,-544.95"/>
<polygon fill="#536476" stroke="#536476" points="761.44,-547.51 769.23,-545.94 762.17,-542.31 761.44,-547.51"/>
<text xml:space="preserve" text-anchor="middle" x="687.35" y="-540.05" font-family="Sans-Serif" font-size="13.00" fill="#2d3436">OIDC sign&#45;in</text>
</g>
<!-- 327f061f1c914fd2bc57c24a5373dccd -->
<g id="node7" class="node">
<title>327f061f1c914fd2bc57c24a5373dccd</title>
<image xlink:href="/Users/aiden/Documents/Codex/2026-07-01/files-mentioned-by-the-user-you/outputs/inspectiq/.venv-diagrams/lib/python3.14/site-packages/resources/aws/network/api-gateway.png" width="100.8px" height="100.8px" preserveAspectRatio="xMinYMin meet" x="1051.4" y="-603.4"/>
<text xml:space="preserve" text-anchor="middle" x="1101.8" y="-486.75" font-family="Arial" font-size="11.00" fill="#2d3436">API Gateway</text>
<text xml:space="preserve" text-anchor="middle" x="1101.8" y="-473.25" font-family="Arial" font-size="11.00" fill="#2d3436">HTTP API + JWT</text>
</g>
<!-- 7a8bafeb59ae4a4c8aeb835d1a1df723&#45;&gt;327f061f1c914fd2bc57c24a5373dccd -->
<g id="edge3" class="edge">
<title>7a8bafeb59ae4a4c8aeb835d1a1df723&#45;&gt;327f061f1c914fd2bc57c24a5373dccd</title>
<path fill="none" stroke="#536476" d="M603.33,-487.04C665.64,-454.12 776.21,-407.85 871.4,-431.5 934.66,-447.22 999.66,-483.96 1044.25,-512.95"/>
<polygon fill="#536476" stroke="#536476" points="1042.8,-515.14 1050.51,-517.07 1045.68,-510.75 1042.8,-515.14"/>
<text xml:space="preserve" text-anchor="middle" x="821" y="-432.65" font-family="Sans-Serif" font-size="13.00" fill="#2d3436">REST + JWT</text>
</g>
<!-- 41ac6860a1fc472da8ee97f8e4f72d4f -->
<g id="node3" class="node">
<title>41ac6860a1fc472da8ee97f8e4f72d4f</title>
<image xlink:href="/Users/aiden/Documents/Codex/2026-07-01/files-mentioned-by-the-user-you/outputs/inspectiq/.venv-diagrams/lib/python3.14/site-packages/resources/onprem/vcs/github.png" width="100.8px" height="100.8px" preserveAspectRatio="xMinYMin meet" x="16" y="-343.4"/>
<text xml:space="preserve" text-anchor="middle" x="66.4" y="-227.65" font-family="Arial" font-size="11.00" fill="#2d3436">GitHub repo</text>
</g>
<!-- d81936326380413e858cb33389cc16e6 -->
<g id="node4" class="node">
<title>d81936326380413e858cb33389cc16e6</title>
<image xlink:href="/Users/aiden/Documents/Codex/2026-07-01/files-mentioned-by-the-user-you/outputs/inspectiq/.venv-diagrams/lib/python3.14/site-packages/resources/onprem/ci/github-actions.png" width="100.8px" height="100.8px" preserveAspectRatio="xMinYMin meet" x="207.8" y="-343.4"/>
<text xml:space="preserve" text-anchor="middle" x="258.2" y="-226.75" font-family="Arial" font-size="11.00" fill="#2d3436">GitHub Actions</text>
<text xml:space="preserve" text-anchor="middle" x="258.2" y="-213.25" font-family="Arial" font-size="11.00" fill="#2d3436">CI + Pages</text>
</g>
<!-- 41ac6860a1fc472da8ee97f8e4f72d4f&#45;&gt;d81936326380413e858cb33389cc16e6 -->
<g id="edge19" class="edge">
<title>41ac6860a1fc472da8ee97f8e4f72d4f&#45;&gt;d81936326380413e858cb33389cc16e6</title>
<path fill="none" stroke="#536476" d="M116.77,-293C142.03,-293 172.94,-293 199.32,-293"/>
<polygon fill="#536476" stroke="#536476" points="199.06,-295.63 206.56,-293 199.06,-290.38 199.06,-295.63"/>
</g>
<!-- d81936326380413e858cb33389cc16e6&#45;&gt;7a8bafeb59ae4a4c8aeb835d1a1df723 -->
<g id="edge20" class="edge">
<title>d81936326380413e858cb33389cc16e6&#45;&gt;7a8bafeb59ae4a4c8aeb835d1a1df723</title>
<path fill="none" stroke="#536476" d="M308.53,-330.58C360.31,-370.02 441.58,-431.91 495.79,-473.21"/>
<polygon fill="#536476" stroke="#536476" points="494.17,-475.27 501.72,-477.72 497.35,-471.09 494.17,-475.27"/>
<text xml:space="preserve" text-anchor="middle" x="405.72" y="-445.02" font-family="Sans-Serif" font-size="13.00" fill="#2d3436">wrangler deploy</text>
</g>
<!-- 5d6def5763174c1397bf279bd90eb59a -->
<g id="node5" class="node">
<title>5d6def5763174c1397bf279bd90eb59a</title>
<image xlink:href="/Users/aiden/Documents/Codex/2026-07-01/files-mentioned-by-the-user-you/outputs/inspectiq/.venv-diagrams/lib/python3.14/site-packages/resources/onprem/iac/terraform.png" width="100.8px" height="100.8px" preserveAspectRatio="xMinYMin meet" x="502.575" y="-343.4"/>
<text xml:space="preserve" text-anchor="middle" x="552.98" y="-226.75" font-family="Arial" font-size="11.00" fill="#2d3436">Terraform</text>
<text xml:space="preserve" text-anchor="middle" x="552.98" y="-213.25" font-family="Arial" font-size="11.00" fill="#2d3436">AWS IaC</text>
</g>
<!-- d81936326380413e858cb33389cc16e6&#45;&gt;5d6def5763174c1397bf279bd90eb59a -->
<g id="edge21" class="edge">
<title>d81936326380413e858cb33389cc16e6&#45;&gt;5d6def5763174c1397bf279bd90eb59a</title>
<path fill="none" stroke="#536476" d="M308.53,-293C359.79,-293 439.92,-293 494.13,-293"/>
<polygon fill="#536476" stroke="#536476" points="493.91,-295.63 501.41,-293 493.91,-290.38 493.91,-295.63"/>
<text xml:space="preserve" text-anchor="middle" x="405.72" y="-294.15" font-family="Sans-Serif" font-size="13.00" fill="#2d3436">test build validate</text>
</g>
<!-- 5d6def5763174c1397bf279bd90eb59a&#45;&gt;327f061f1c914fd2bc57c24a5373dccd -->
<g id="edge22" class="edge">
<title>5d6def5763174c1397bf279bd90eb59a&#45;&gt;327f061f1c914fd2bc57c24a5373dccd</title>
<path fill="none" stroke="#536476" stroke-dasharray="5,2" d="M603.29,-298.88C691.12,-311.33 877.48,-346.79 1006.4,-435 1020.82,-444.87 1034.13,-457.59 1045.92,-471.01"/>
<polygon fill="#536476" stroke="#536476" points="1043.74,-472.49 1050.61,-476.49 1047.73,-469.08 1043.74,-472.49"/>
<text xml:space="preserve" text-anchor="middle" x="821" y="-365.02" font-family="Sans-Serif" font-size="13.00" fill="#2d3436">manual apply</text>
</g>
<!-- 18eb9d423928499cbbca615a5df84208&#45;&gt;327f061f1c914fd2bc57c24a5373dccd -->
<g id="edge4" class="edge">
<title>18eb9d423928499cbbca615a5df84208&#45;&gt;327f061f1c914fd2bc57c24a5373dccd</title>
<path fill="none" stroke="#536476" d="M871.2,-553C919.13,-553 991.99,-553 1042.73,-553"/>
<polygon fill="#536476" stroke="#536476" points="1042.61,-555.63 1050.11,-553 1042.61,-550.38 1042.61,-555.63"/>
<text xml:space="preserve" text-anchor="middle" x="961.4" y="-554.15" font-family="Sans-Serif" font-size="13.00" fill="#2d3436">JWT authorizer</text>
</g>
<!-- ec020225ecd84b678b9d3b924e991349 -->
<g id="node8" class="node">
<title>ec020225ecd84b678b9d3b924e991349</title>
<image xlink:href="/Users/aiden/Documents/Codex/2026-07-01/files-mentioned-by-the-user-you/outputs/inspectiq/.venv-diagrams/lib/python3.14/site-packages/resources/aws/compute/lambda.png" width="100.8px" height="100.8px" preserveAspectRatio="xMinYMin meet" x="1243.2" y="-603.4"/>
<text xml:space="preserve" text-anchor="middle" x="1293.6" y="-486.75" font-family="Arial" font-size="11.00" fill="#2d3436">Lambda API</text>
<text xml:space="preserve" text-anchor="middle" x="1293.6" y="-473.25" font-family="Arial" font-size="11.00" fill="#2d3436">Node/Express</text>
</g>
<!-- 327f061f1c914fd2bc57c24a5373dccd&#45;&gt;ec020225ecd84b678b9d3b924e991349 -->
<g id="edge5" class="edge">
<title>327f061f1c914fd2bc57c24a5373dccd&#45;&gt;ec020225ecd84b678b9d3b924e991349</title>
<path fill="none" stroke="#536476" d="M1152.17,-553C1177.43,-553 1208.34,-553 1234.72,-553"/>
<polygon fill="#536476" stroke="#536476" points="1234.46,-555.63 1241.96,-553 1234.46,-550.38 1234.46,-555.63"/>
</g>
<!-- efac3fabf31f4019944079a4ee1cccc3 -->
<g id="node9" class="node">
<title>efac3fabf31f4019944079a4ee1cccc3</title>
<image xlink:href="/Users/aiden/Documents/Codex/2026-07-01/files-mentioned-by-the-user-you/outputs/inspectiq/.venv-diagrams/lib/python3.14/site-packages/resources/aws/security/secrets-manager.png" width="100.8px" height="100.8px" preserveAspectRatio="xMinYMin meet" x="2080.83" y="-394.4"/>
<text xml:space="preserve" text-anchor="middle" x="2131.23" y="-277.75" font-family="Arial" font-size="11.00" fill="#2d3436">Secrets Manager</text>
<text xml:space="preserve" text-anchor="middle" x="2131.23" y="-264.25" font-family="Arial" font-size="11.00" fill="#2d3436">Neon URL</text>
</g>
<!-- ec020225ecd84b678b9d3b924e991349&#45;&gt;efac3fabf31f4019944079a4ee1cccc3 -->
<g id="edge8" class="edge">
<title>ec020225ecd84b678b9d3b924e991349&#45;&gt;efac3fabf31f4019944079a4ee1cccc3</title>
<path fill="none" stroke="#536476" d="M1343.74,-471.91C1356.75,-455.52 1371.99,-439.73 1389,-428 1428.25,-400.93 1445.32,-407.7 1492,-398 1702.68,-354.25 1959.53,-345.78 2072.36,-344.26"/>
<polygon fill="#536476" stroke="#536476" points="2072.23,-346.89 2079.7,-344.17 2072.17,-341.64 2072.23,-346.89"/>
<text xml:space="preserve" text-anchor="middle" x="1694.18" y="-372.99" font-family="Sans-Serif" font-size="13.00" fill="#2d3436">DB URL</text>
</g>
<!-- 56dcb9470993400a9b590328a91ab512 -->
<g id="node10" class="node">
<title>56dcb9470993400a9b590328a91ab512</title>
<image xlink:href="/Users/aiden/Documents/Codex/2026-07-01/files-mentioned-by-the-user-you/outputs/inspectiq/.venv-diagrams/lib/python3.14/site-packages/resources/aws/storage/simple-storage-service-s3.png" width="100.8px" height="100.8px" preserveAspectRatio="xMinYMin meet" x="2080.83" y="-610.4"/>
<text xml:space="preserve" text-anchor="middle" x="2131.23" y="-493.75" font-family="Arial" font-size="11.00" fill="#2d3436">Private S3</text>
<text xml:space="preserve" text-anchor="middle" x="2131.23" y="-480.25" font-family="Arial" font-size="11.00" fill="#2d3436">vehicle images</text>
</g>
<!-- ec020225ecd84b678b9d3b924e991349&#45;&gt;56dcb9470993400a9b590328a91ab512 -->
<g id="edge6" class="edge">
<title>ec020225ecd84b678b9d3b924e991349&#45;&gt;56dcb9470993400a9b590328a91ab512</title>
<path fill="none" stroke="#536476" d="M1343.69,-510.98C1381.57,-481.15 1436.68,-443.15 1492,-424 1556.84,-401.56 1577.25,-413.5 1645.8,-410.5 1757.21,-405.62 1790.05,-390.29 1896.35,-424 1961.8,-444.76 2028.76,-486.15 2074.16,-517.85"/>
<polygon fill="#536476" stroke="#536476" points="2072.38,-519.81 2080.03,-521.98 2075.41,-515.51 2072.38,-519.81"/>
<text xml:space="preserve" text-anchor="middle" x="1694.18" y="-411.65" font-family="Sans-Serif" font-size="13.00" fill="#2d3436">presigned URLs</text>
</g>
<!-- 7a7a8b286cce4c1f917572dc310e46d1 -->
<g id="node11" class="node">
<title>7a7a8b286cce4c1f917572dc310e46d1</title>
<image xlink:href="/Users/aiden/Documents/Codex/2026-07-01/files-mentioned-by-the-user-you/outputs/inspectiq/.venv-diagrams/lib/python3.14/site-packages/resources/aws/integration/simple-queue-service-sqs.png" width="100.8px" height="100.8px" preserveAspectRatio="xMinYMin meet" x="1500" y="-708.4"/>
<text xml:space="preserve" text-anchor="middle" x="1550.4" y="-591.75" font-family="Arial" font-size="11.00" fill="#2d3436">SQS</text>
<text xml:space="preserve" text-anchor="middle" x="1550.4" y="-578.25" font-family="Arial" font-size="11.00" fill="#2d3436">image jobs</text>
</g>
<!-- ec020225ecd84b678b9d3b924e991349&#45;&gt;7a7a8b286cce4c1f917572dc310e46d1 -->
<g id="edge9" class="edge">
<title>ec020225ecd84b678b9d3b924e991349&#45;&gt;7a7a8b286cce4c1f917572dc310e46d1</title>
<path fill="none" stroke="#536476" d="M1343.73,-573.25C1386.2,-590.75 1447.63,-616.06 1492.29,-634.46"/>
<polygon fill="#536476" stroke="#536476" points="1491.09,-636.81 1499.02,-637.24 1493.09,-631.96 1491.09,-636.81"/>
<text xml:space="preserve" text-anchor="middle" x="1422" y="-619.14" font-family="Sans-Serif" font-size="13.00" fill="#2d3436">queue jobs</text>
</g>
<!-- 1f43b979b50b4f5cb634d0a40d39748e -->
<g id="node14" class="node">
<title>1f43b979b50b4f5cb634d0a40d39748e</title>
<image xlink:href="/Users/aiden/Documents/Codex/2026-07-01/files-mentioned-by-the-user-you/outputs/inspectiq/.venv-diagrams/lib/python3.14/site-packages/resources/aws/ml/bedrock.png" width="100.8px" height="100.8px" preserveAspectRatio="xMinYMin meet" x="2080.83" y="-826.4"/>
<text xml:space="preserve" text-anchor="middle" x="2131.23" y="-709.75" font-family="Arial" font-size="11.00" fill="#2d3436">Bedrock</text>
<text xml:space="preserve" text-anchor="middle" x="2131.23" y="-696.25" font-family="Arial" font-size="11.00" fill="#2d3436">multimodal</text>
</g>
<!-- ec020225ecd84b678b9d3b924e991349&#45;&gt;1f43b979b50b4f5cb634d0a40d39748e -->
<g id="edge15" class="edge">
<title>ec020225ecd84b678b9d3b924e991349&#45;&gt;1f43b979b50b4f5cb634d0a40d39748e</title>
<path fill="none" stroke="#536476" d="M1332.42,-635.72C1365.74,-699.67 1420.17,-785.7 1492,-837 1590.17,-907.1 1921.83,-975.14 2028.6,-919 2041.54,-912.2 2059.07,-890.38 2075.93,-865.76"/>
<polygon fill="#536476" stroke="#536476" points="2078.03,-867.35 2080.05,-859.66 2073.68,-864.41 2078.03,-867.35"/>
<text xml:space="preserve" text-anchor="middle" x="1694.18" y="-923.79" font-family="Sans-Serif" font-size="13.00" fill="#2d3436">report draft</text>
</g>
<!-- f9b06632e30641f89ebe79a2b4134f38 -->
<g id="node15" class="node">
<title>f9b06632e30641f89ebe79a2b4134f38</title>
<image xlink:href="/Users/aiden/Documents/Codex/2026-07-01/files-mentioned-by-the-user-you/outputs/inspectiq/.venv-diagrams/lib/python3.14/site-packages/resources/aws/management/cloudwatch.png" width="100.8px" height="100.8px" preserveAspectRatio="xMinYMin meet" x="2080.83" y="-1042.4"/>
<text xml:space="preserve" text-anchor="middle" x="2131.23" y="-925.75" font-family="Arial" font-size="11.00" fill="#2d3436">CloudWatch</text>
<text xml:space="preserve" text-anchor="middle" x="2131.23" y="-912.25" font-family="Arial" font-size="11.00" fill="#2d3436">logs alarms dashboard</text>
</g>
<!-- ec020225ecd84b678b9d3b924e991349&#45;&gt;f9b06632e30641f89ebe79a2b4134f38 -->
<g id="edge16" class="edge">
<title>ec020225ecd84b678b9d3b924e991349&#45;&gt;f9b06632e30641f89ebe79a2b4134f38</title>
<path fill="none" stroke="#536476" d="M1319.01,-635.76C1334.74,-681.11 1358.06,-736.9 1389,-781 1424.6,-831.73 1440.55,-840.44 1492,-875 1554.81,-917.19 1572.81,-928.05 1645.8,-948 1795.58,-988.95 1980.12,-993.77 2072.21,-993.24"/>
<polygon fill="#536476" stroke="#536476" points="2072.1,-995.87 2079.58,-993.18 2072.06,-990.62 2072.1,-995.87"/>
<text xml:space="preserve" text-anchor="middle" x="1694.18" y="-969.92" font-family="Sans-Serif" font-size="13.00" fill="#2d3436">logs + metrics</text>
</g>
<!-- 30e72de8e9894e39ab35cbd592444ec1 -->
<g id="node16" class="node">
<title>30e72de8e9894e39ab35cbd592444ec1</title>
<image xlink:href="/Users/aiden/Documents/Codex/2026-07-01/files-mentioned-by-the-user-you/outputs/inspectiq/.venv-diagrams/lib/python3.14/site-packages/resources/onprem/database/postgresql.png" width="100.8px" height="100.8px" preserveAspectRatio="xMinYMin meet" x="2080.83" y="-175.4"/>
<text xml:space="preserve" text-anchor="middle" x="2131.23" y="-58.75" font-family="Arial" font-size="11.00" fill="#2d3436">Neon Postgres</text>
<text xml:space="preserve" text-anchor="middle" x="2131.23" y="-45.25" font-family="Arial" font-size="11.00" fill="#2d3436">external</text>
</g>
<!-- ec020225ecd84b678b9d3b924e991349&#45;&gt;30e72de8e9894e39ab35cbd592444ec1 -->
<g id="edge7" class="edge">
<title>ec020225ecd84b678b9d3b924e991349&#45;&gt;30e72de8e9894e39ab35cbd592444ec1</title>
<path fill="none" stroke="#536476" d="M1328.83,-470.4C1343.82,-442.38 1363.83,-412.91 1389,-392 1601.09,-215.84 1938.74,-151.56 2072.72,-132.19"/>
<polygon fill="#536476" stroke="#536476" points="2072.69,-134.84 2079.75,-131.19 2071.96,-129.64 2072.69,-134.84"/>
<text xml:space="preserve" text-anchor="middle" x="1694.18" y="-242.81" font-family="Sans-Serif" font-size="13.00" fill="#2d3436">workflow rows</text>
</g>
<!-- 7ca8e9cfd263483dbcadd998f0a7e708 -->
<g id="node12" class="node">
<title>7ca8e9cfd263483dbcadd998f0a7e708</title>
<image xlink:href="/Users/aiden/Documents/Codex/2026-07-01/files-mentioned-by-the-user-you/outputs/inspectiq/.venv-diagrams/lib/python3.14/site-packages/resources/aws/integration/simple-queue-service-sqs.png" width="100.8px" height="100.8px" preserveAspectRatio="xMinYMin meet" x="1787.55" y="-562.4"/>
<text xml:space="preserve" text-anchor="middle" x="1837.95" y="-446.65" font-family="Arial" font-size="11.00" fill="#2d3436">SQS DLQ</text>
</g>
<!-- 7a7a8b286cce4c1f917572dc310e46d1&#45;&gt;7ca8e9cfd263483dbcadd998f0a7e708 -->
<g id="edge11" class="edge">
<title>7a7a8b286cce4c1f917572dc310e46d1&#45;&gt;7ca8e9cfd263483dbcadd998f0a7e708</title>
<path fill="none" stroke="#536476" d="M1600.49,-632.9C1650.39,-607.39 1727.62,-567.9 1780.14,-541.05"/>
<polygon fill="#536476" stroke="#536476" points="1781.2,-543.46 1786.68,-537.7 1778.81,-538.78 1781.2,-543.46"/>
<text xml:space="preserve" text-anchor="middle" x="1694.18" y="-607.76" font-family="Sans-Serif" font-size="13.00" fill="#2d3436">DLQ</text>
</g>
<!-- ba0949a6375b4bc88c2cf1c064802583 -->
<g id="node13" class="node">
<title>ba0949a6375b4bc88c2cf1c064802583</title>
<image xlink:href="/Users/aiden/Documents/Codex/2026-07-01/files-mentioned-by-the-user-you/outputs/inspectiq/.venv-diagrams/lib/python3.14/site-packages/resources/aws/compute/lambda.png" width="100.8px" height="100.8px" preserveAspectRatio="xMinYMin meet" x="1787.55" y="-763.4"/>
<text xml:space="preserve" text-anchor="middle" x="1837.95" y="-646.75" font-family="Arial" font-size="11.00" fill="#2d3436">Lambda worker</text>
<text xml:space="preserve" text-anchor="middle" x="1837.95" y="-633.25" font-family="Arial" font-size="11.00" fill="#2d3436">image analysis</text>
</g>
<!-- 7a7a8b286cce4c1f917572dc310e46d1&#45;&gt;ba0949a6375b4bc88c2cf1c064802583 -->
<g id="edge10" class="edge">
<title>7a7a8b286cce4c1f917572dc310e46d1&#45;&gt;ba0949a6375b4bc88c2cf1c064802583</title>
<path fill="none" stroke="#536476" d="M1600.49,-667.45C1650.18,-677.03 1726.99,-691.82 1779.49,-701.93"/>
<polygon fill="#536476" stroke="#536476" points="1778.68,-704.45 1786.54,-703.29 1779.67,-699.29 1778.68,-704.45"/>
</g>
<!-- 7a7a8b286cce4c1f917572dc310e46d1&#45;&gt;f9b06632e30641f89ebe79a2b4134f38 -->
<g id="edge18" class="edge">
<title>7a7a8b286cce4c1f917572dc310e46d1&#45;&gt;f9b06632e30641f89ebe79a2b4134f38</title>
<path fill="none" stroke="#536476" d="M1600.73,-697.77C1671.16,-753.1 1806.12,-853.82 1933.35,-919 1978.48,-942.12 2032.7,-961.67 2072.8,-974.7"/>
<polygon fill="#536476" stroke="#536476" points="2071.75,-977.12 2079.69,-976.92 2073.35,-972.12 2071.75,-977.12"/>
<text xml:space="preserve" text-anchor="middle" x="1837.95" y="-897.06" font-family="Sans-Serif" font-size="13.00" fill="#2d3436">queue health</text>
</g>
<!-- ba0949a6375b4bc88c2cf1c064802583&#45;&gt;56dcb9470993400a9b590328a91ab512 -->
<g id="edge12" class="edge">
<title>ba0949a6375b4bc88c2cf1c064802583&#45;&gt;56dcb9470993400a9b590328a91ab512</title>
<path fill="none" stroke="#536476" d="M1888.03,-687.22C1939.18,-660.35 2019.25,-618.29 2073.18,-589.96"/>
<polygon fill="#536476" stroke="#536476" points="2074.18,-592.4 2079.6,-586.59 2071.74,-587.75 2074.18,-592.4"/>
<text xml:space="preserve" text-anchor="middle" x="1980.98" y="-660.29" font-family="Sans-Serif" font-size="13.00" fill="#2d3436">read image</text>
</g>
<!-- ba0949a6375b4bc88c2cf1c064802583&#45;&gt;1f43b979b50b4f5cb634d0a40d39748e -->
<g id="edge14" class="edge">
<title>ba0949a6375b4bc88c2cf1c064802583&#45;&gt;1f43b979b50b4f5cb634d0a40d39748e</title>
<path fill="none" stroke="#536476" d="M1888.03,-723.62C1938.87,-734.61 2018.27,-751.78 2072.18,-763.45"/>
<polygon fill="#536476" stroke="#536476" points="2071.58,-766 2079.46,-765.02 2072.69,-760.87 2071.58,-766"/>
<text xml:space="preserve" text-anchor="middle" x="1980.98" y="-754.97" font-family="Sans-Serif" font-size="13.00" fill="#2d3436">vision</text>
</g>
<!-- ba0949a6375b4bc88c2cf1c064802583&#45;&gt;f9b06632e30641f89ebe79a2b4134f38 -->
<g id="edge17" class="edge">
<title>ba0949a6375b4bc88c2cf1c064802583&#45;&gt;f9b06632e30641f89ebe79a2b4134f38</title>
<path fill="none" stroke="#536476" d="M1888.03,-760.01C1939.6,-809.41 2020.57,-886.96 2074.5,-938.63"/>
<polygon fill="#536476" stroke="#536476" points="2072.62,-940.45 2079.85,-943.75 2076.25,-936.66 2072.62,-940.45"/>
<text xml:space="preserve" text-anchor="middle" x="1980.98" y="-894.94" font-family="Sans-Serif" font-size="13.00" fill="#2d3436">logs + metrics</text>
</g>
<!-- ba0949a6375b4bc88c2cf1c064802583&#45;&gt;30e72de8e9894e39ab35cbd592444ec1 -->
<g id="edge13" class="edge">
<title>ba0949a6375b4bc88c2cf1c064802583&#45;&gt;30e72de8e9894e39ab35cbd592444ec1</title>
<path fill="none" stroke="#536476" d="M1883.43,-630.39C1887.86,-621.85 1892.23,-613.27 1896.35,-605 1975.85,-445.28 1984.52,-399.92 2065.6,-241 2069.85,-232.67 2074.38,-224.06 2078.99,-215.48"/>
<polygon fill="#536476" stroke="#536476" points="2081.26,-216.79 2082.52,-208.94 2076.64,-214.29 2081.26,-216.79"/>
<text xml:space="preserve" text-anchor="middle" x="1980.98" y="-522.22" font-family="Sans-Serif" font-size="13.00" fill="#2d3436">validated output</text>
</g>
</g>
</svg>
